<?xml version="1.0" encoding="utf-8"?>
<!-- Generator: Adobe Illustrator 25.2.3, SVG Export Plug-In . SVG Version: 6.00 Build 0)  -->
<svg version="1.1" id="_层_1" xmlns="http://www.w3.org/2000/svg" xmlns:xlink="http://www.w3.org/1999/xlink" x="0px" y="0px"
	 viewBox="0 0 141.73 44.18" style="enable-background:new 0 0 141.73 44.18;" xml:space="preserve">
<style type="text/css">
	.st0{fill:#FFFFFF;}
</style>
<g>
	<g>
		<path class="st0" d="M103.91,24.3v-6.52h7.63c0,0,0.08-0.03,0.08-0.08v-2c0,0-0.03-0.08-0.08-0.08h-7.63V9.14h6.85
			c0,0,0.08-0.03,0.08-0.08V7.12c0,0-0.03-0.08-0.08-0.08H95.04c0,0-0.08,0.03-0.08,0.08v1.94c0,0,0.03,0.08,0.08,0.08h6.68v6.48
			h-7.53c0,0-0.08,0.03-0.08,0.08v2c0,0,0.03,0.08,0.08,0.08h7.53v6.52c0,0,0.03,0.08,0.08,0.08h2.04c0,0,0.08-0.03,0.08-0.08
			H103.91z"/>
		<path class="st0" d="M107.78,9.78l-0.02,0.07c-0.42,1.32-1.22,3.17-1.91,4.39l-0.05,0.08c0,0-0.01,0.05,0,0.07
			c0,0.02,0.03,0.04,0.05,0.05l1.88,0.56c0,0,0.01,0,0.02,0c0.03,0,0.05-0.01,0.06-0.03l0.03-0.05c0.45-0.68,0.88-1.63,1.47-2.94
			c0.2-0.45,0.42-0.94,0.67-1.48l0.04-0.08c0,0,0-0.04,0-0.07s-0.03-0.04-0.05-0.04l-2.1-0.57c0,0-0.08,0.01-0.09,0.05L107.78,9.78z
			"/>
		<path class="st0" d="M97.85,14.85l0.02,0.08c0,0,0.02,0.04,0.04,0.05c0.01,0,0.02,0,0.03,0c0,0,0.02,0,0.03,0l1.85-0.75
			c0,0,0.06-0.06,0.05-0.09l-0.02-0.06c-0.35-1.21-1.26-2.96-2-4.16l-0.03-0.05c0,0-0.06-0.05-0.09-0.03l-1.76,0.66
			c0,0-0.04,0.03-0.05,0.05s0,0.05,0,0.07l0.05,0.08c0.74,1.25,1.53,3.01,1.88,4.18V14.85z"/>
	</g>
	<g>
		<path class="st0" d="M138.42,9.41c0,0,0.03,0.03,0.05,0.03h0.01c0,0,0.03,0,0.05-0.02l1.41-1.1c0,0,0.03-0.03,0.03-0.05
			s0-0.04-0.02-0.06c-0.49-0.61-1.09-1.21-2.03-2.1c-0.03-0.02-0.07-0.03-0.1,0l-1.36,0.97c0,0-0.03,0.03-0.03,0.06
			c0,0.02,0,0.05,0.02,0.06c0.82,0.82,1.43,1.48,1.95,2.22L138.42,9.41z"/>
		<path class="st0" d="M141.69,20.45l-0.05-0.02c-0.36-0.18-1.1-0.55-1.44-0.96l-0.12-0.15c0,0-0.05-0.03-0.08-0.02
			s-0.05,0.04-0.05,0.07v0.2c-0.09,1.69-0.52,2.53-0.9,2.6c-0.59,0.11-1.05-0.32-1.53-1.44c1.41-1.12,2.21-2.01,3.15-3.51l0.05-0.07
			c0,0,0.02-0.04,0-0.06c0-0.02-0.02-0.04-0.04-0.05l-1.65-0.75c0,0-0.08,0-0.1,0.03l-0.04,0.06c-0.6,0.96-1.03,1.52-2.05,2.38
			c-0.24-0.89-0.43-1.83-0.58-2.81l4.66-0.87c0,0,0.07-0.05,0.06-0.09l-0.3-1.74c0,0-0.02-0.04-0.03-0.05
			c-0.02-0.01-0.04-0.02-0.06-0.01L136,14.04c-0.07-0.62-0.13-1.27-0.19-1.93l4.59-0.72c0,0,0.04-0.01,0.05-0.03
			c0.01-0.02,0.02-0.04,0.01-0.06l-0.34-1.76c0,0-0.05-0.07-0.09-0.06l-4.34,0.65c-0.07-1.15-0.09-2.38-0.07-3.75V6.3
			c0,0,0-0.04-0.02-0.06c-0.01-0.01-0.03-0.02-0.06-0.02h-1.98c0,0-0.08,0.03-0.08,0.08v0.07c0,1.38,0.04,2.75,0.11,4.07l-2.89,0.42
			c0,0-0.04,0.01-0.05,0.03c-0.01,0.02-0.02,0.04-0.01,0.06l0.34,1.8c0,0,0.04,0.07,0.09,0.06l2.66-0.4
			c0.06,0.69,0.13,1.38,0.19,1.98l-3.61,0.68c0,0-0.07,0.05-0.06,0.09l0.3,1.78c0,0,0.01,0.04,0.03,0.05
			c0.02,0.01,0.04,0.02,0.06,0.01l3.55-0.65c0.21,1.39,0.49,2.65,0.83,3.74c-1.57,0.99-2.67,1.64-4.58,2.22l-0.12,0.04
			c0,0-0.05,0.03-0.05,0.06c0,0.03,0,0.05,0.02,0.07l0.09,0.09c0.42,0.42,0.86,1.05,1.09,1.46l0.03,0.05c0,0,0.06,0.05,0.09,0.04
			l0.06-0.02c1.79-0.62,2.68-1.21,4.04-2.09l0.05-0.03c0.8,1.61,1.87,2.43,3.18,2.43c1.49,0,2.44-1.31,2.77-3.8v-0.05
			c0,0,0-0.06-0.04-0.08L141.69,20.45z"/>
		<path class="st0" d="M130.86,22c0,0,0.06-0.05,0.05-0.09l-0.26-1.67c0,0-0.02-0.04-0.03-0.05c-0.02-0.01-0.04-0.02-0.06-0.01
			l-0.96,0.25c-2.19,0.58-4.25,1.12-5.69,1.45l-0.07,0.02c0,0-0.07,0.05-0.06,0.09l0.36,1.89c0,0,0.02,0.04,0.04,0.05
			c0.01,0,0.03,0.01,0.04,0.01c0,0,0.01,0,0.02,0l0.08-0.02c1.65-0.47,4.12-1.18,6.49-1.9l0.06-0.02H130.86z"/>
		<path class="st0" d="M123.29,13.31c0.23,0.46,0.52,1.3,0.63,1.65l0.03,0.09c0,0,0.02,0.04,0.05,0.05c0.02,0,0.05,0,0.07,0
			l0.08-0.05c0.24-0.14,0.64-0.25,2.44-0.53c-0.66,1-1.21,1.74-1.52,2.06c-0.59,0.8-0.99,1.17-1.37,1.29l-0.08,0.03
			c0,0-0.04,0.02-0.05,0.04c0,0.02,0,0.04,0,0.06l0.04,0.08c0.21,0.44,0.5,1.24,0.59,1.57l0.02,0.09c0,0,0.02,0.04,0.04,0.05
			c0,0,0.02,0,0.03,0s0.03,0,0.04,0l0.08-0.05c0.45-0.24,1.11-0.45,5.91-1.56l0.07-0.02c0,0,0.06-0.05,0.06-0.09V18
			c-0.06-0.36-0.06-1.06-0.04-1.52v-0.1c0,0,0-0.05-0.02-0.06s-0.04-0.02-0.07-0.02l-3.18,0.67c1.31-1.68,2.56-3.63,3.54-5.49
			l0.03-0.06c0,0,0-0.08-0.03-0.1l-1.65-0.95c0,0-0.04-0.01-0.06,0c-0.02,0-0.04,0.02-0.05,0.04l-0.04,0.07
			c-0.31,0.64-0.68,1.38-1.09,2.06l-1.71,0.2c0.98-1.49,1.93-3.36,2.71-5.28l0.03-0.07c0,0,0-0.08-0.04-0.1l-1.88-0.84
			c0,0-0.04,0-0.06,0s-0.04,0.03-0.04,0.05l-0.02,0.08c-0.67,2.29-1.97,4.77-2.37,5.38c-0.39,0.63-0.7,1.04-1.02,1.15l-0.08,0.03
			c0,0-0.04,0.02-0.05,0.04c0,0.02,0,0.04,0,0.06l0.04,0.08L123.29,13.31z"/>
	</g>
	<path class="st0" d="M69.83,17.97c0,0-0.04-0.01-0.07,0L69.68,18c-0.56,0.23-1.21,0.5-1.83,0.77v-5.16h1.93
		c0,0,0.08-0.03,0.08-0.08v-1.88c0,0-0.03-0.08-0.08-0.08h-1.93V6.32c0,0,0-0.04-0.02-0.05c-0.01-0.01-0.03-0.02-0.05-0.02h-1.86
		c0,0-0.08,0.03-0.08,0.08v5.26h-2c0,0-0.08,0.03-0.08,0.08v1.88c0,0,0.03,0.08,0.08,0.08h2v6c-1.12,0.45-1.89,0.75-2.49,0.96
		l-0.07,0.03c0,0-0.04,0.02-0.04,0.04s0,0.04,0,0.06L64,22.69c0,0,0.02,0.04,0.04,0.04c0,0,0.02,0,0.03,0s0.02,0,0.03,0l0.07-0.03
		c2-0.88,4.2-1.89,6.05-2.79c0.03-0.02,0.05-0.05,0.04-0.09l-0.39-1.78c0,0-0.02-0.04-0.04-0.05L69.83,17.97z"/>
	<path class="st0" d="M71.14,13.54L69.8,14c0,0-0.05,0.04-0.05,0.07v0.34h0.08V16H69.8l0.06,0.16l1.29-0.52v5.62
		c0,2.42,0.73,3.12,3.26,3.12h4.5c2.36,0,2.85-1.1,3.1-3.73v-0.07c0,0-0.02-0.08-0.06-0.08h-0.07c-0.49-0.11-1.17-0.4-1.55-0.67
		l-0.11-0.08c0,0-0.05-0.02-0.08,0c-0.03,0.01-0.04,0.04-0.04,0.06v0.13c-0.18,2.28-0.4,2.51-1.29,2.51h-4.3
		c-1.16,0-1.32-0.14-1.32-1.16v-6.27l1.89-0.66v5.94c0,0,0.03,0.08,0.08,0.08h1.86c0,0,0.08-0.03,0.08-0.08v-6.64l2.14-0.74v0.54
		c-0.01,3.08-0.07,3.37-0.11,3.57c-0.07,0.34-0.18,0.37-0.36,0.37c-0.2,0-0.72,0-1.13-0.02h-0.13c0,0-0.05,0-0.06,0.03
		c-0.02,0.02-0.02,0.05,0,0.08l0.06,0.11c0.18,0.37,0.34,1.03,0.4,1.5v0.07c0,0,0.05,0.07,0.09,0.07h0.07c0.62,0,1.4-0.03,1.92-0.22
		c0.68-0.18,1.05-0.67,1.15-1.54c0.08-0.51,0.12-1.53,0.14-3.33v-3.97c0,0-0.01-0.05-0.03-0.06s-0.05-0.02-0.07-0.01l-4.06,1.4
		l0.03-5.18c0,0,0-0.04-0.02-0.06s-0.03-0.02-0.06-0.02h-1.86c0,0-0.08,0.03-0.08,0.08l-0.03,5.69v0.18l-1.89,0.65l-0.02-4.56
		c0,0-0.03-0.08-0.08-0.08h-1.88c0,0-0.04,0-0.06,0.02c-0.01,0.01-0.02,0.03-0.02,0.06l0.02,5.08v0.17H71.14z"/>
</g>
<g>
	<path class="st0" d="M140.25,35.2c-0.26-0.18-0.67-0.33-1.24-0.47c-0.47-0.12-0.8-0.21-0.96-0.28s-0.34-0.18-0.34-0.34
		s0.06-0.27,0.21-0.34c0.12-0.07,0.33-0.11,0.6-0.11c0.32,0,0.55,0.05,0.69,0.14c0.13,0.08,0.24,0.24,0.31,0.48
		c0,0.03,0.04,0.05,0.07,0.05h1.04c0,0,0.04,0,0.05-0.02c0.01-0.02,0.02-0.04,0.02-0.06c-0.12-1.07-0.84-1.61-2.16-1.61
		c-0.63,0-1.11,0.13-1.48,0.4c-0.39,0.25-0.59,0.63-0.59,1.11c0,0.45,0.2,0.8,0.6,1.05c0.24,0.16,0.65,0.3,1.23,0.43
		c0.39,0.09,0.78,0.19,0.94,0.27c0.26,0.12,0.38,0.27,0.38,0.47c0,0.35-0.35,0.53-1.05,0.53c-0.32,0-0.57-0.06-0.72-0.16
		c-0.15-0.12-0.25-0.33-0.3-0.62c0-0.03-0.04-0.06-0.07-0.06h-1.04c0,0-0.04,0-0.05,0.02c-0.01,0.02-0.02,0.04-0.02,0.06
		c0.11,1.18,0.86,1.78,2.25,1.78c1.5,0,2.26-0.55,2.26-1.63c0-0.46-0.21-0.83-0.61-1.09L140.25,35.2z"/>
	<path class="st0" d="M69.65,31.05h-1.09c0,0-0.07,0.03-0.07,0.07v2.65h-3.17v-2.65c0,0-0.03-0.07-0.07-0.07h-1.08
		c0,0-0.07,0.03-0.07,0.07v6.72c0,0,0.03,0.07,0.07,0.07h1.08c0,0,0.07-0.03,0.07-0.07v-2.83h3.17v2.83c0,0,0.03,0.07,0.07,0.07
		h1.09c0,0,0.07-0.03,0.07-0.07v-6.72C69.72,31.12,69.69,31.05,69.65,31.05z"/>
	<path class="st0" d="M73.11,32.64c-1.29,0-2.6,0.91-2.6,2.65s1.31,2.63,2.6,2.63s2.6-0.9,2.6-2.63S74.4,32.64,73.11,32.64z
		 M74.31,35.29c0,0.94-0.47,1.54-1.2,1.54s-1.19-0.61-1.19-1.54s0.47-1.56,1.19-1.56S74.31,34.34,74.31,35.29z"/>
	<path class="st0" d="M110.51,32.64c-1.29,0-2.6,0.91-2.6,2.65s1.31,2.63,2.6,2.63s2.6-0.9,2.6-2.63S111.8,32.64,110.51,32.64z
		 M111.71,35.29c0,0.94-0.47,1.54-1.2,1.54s-1.19-0.61-1.19-1.54s0.47-1.56,1.19-1.56S111.71,34.34,111.71,35.29z"/>
	<path class="st0" d="M121.94,32.64c-1.29,0-2.6,0.91-2.6,2.65s1.31,2.63,2.6,2.63s2.6-0.9,2.6-2.63S123.23,32.64,121.94,32.64z
		 M123.14,35.29c0,0.94-0.47,1.54-1.2,1.54s-1.19-0.61-1.19-1.54s0.47-1.56,1.19-1.56S123.14,34.34,123.14,35.29z"/>
	<path class="st0" d="M89.68,32.64c-1.29,0-2.6,0.91-2.6,2.65s1.31,2.63,2.6,2.63s2.6-0.9,2.6-2.63S90.97,32.64,89.68,32.64z
		 M90.88,35.29c0,0.94-0.47,1.54-1.2,1.54s-1.19-0.61-1.19-1.54s0.47-1.56,1.19-1.56S90.88,34.34,90.88,35.29z"/>
	<path class="st0" d="M79.68,32.89l-0.05-0.02c-0.19-0.09-0.38-0.13-0.65-0.13c-0.52,0-1.02,0.3-1.41,0.84l-0.06-0.73
		c0,0-0.03-0.07-0.07-0.07h-1.02c0,0-0.07,0.03-0.07,0.07v5c0,0,0.03,0.07,0.07,0.07h1.22c0,0,0.07-0.03,0.07-0.07v-2.83
		C78.09,34.1,78.63,34,78.85,34c0.2,0,0.32,0.03,0.48,0.08l0.07,0.02c0,0,0.04,0,0.06,0c0.02-0.01,0.03-0.03,0.03-0.05l0.23-1.08
		C79.72,32.97,79.72,32.9,79.68,32.89z"/>
	<path class="st0" d="M86.66,36.76h-2.45l2.41-3.12l0,0v-0.02c0,0,0.02-0.03,0.02-0.04v-0.74c0,0-0.03-0.07-0.07-0.07h-3.98
		c0,0-0.04,0-0.05,0.02c-0.01,0.01-0.02,0.03-0.02,0.05v1.05c0,0,0.03,0.07,0.07,0.07h2.27l-2.42,3.16v0.02c0,0-0.02,0.03-0.02,0.04
		v0.68c0,0,0.03,0.07,0.07,0.07h4.17c0,0,0.07-0.03,0.07-0.07v-1.01c0,0-0.03-0.07-0.07-0.07V36.76z"/>
	<path class="st0" d="M116.47,32.59c-0.45,0-0.95,0.17-1.41,0.49l0.02-2.06c0,0,0-0.04-0.02-0.05c-0.01-0.01-0.03-0.02-0.05-0.02
		h-1.07c0,0-0.07,0.03-0.07,0.07v6.72c0,0,0.03,0.07,0.07,0.07h0.83c0,0,0.06-0.02,0.07-0.06l0.07-0.35
		c0.43,0.33,0.93,0.52,1.38,0.52c1.19,0,2.39-0.94,2.39-2.74C118.68,33.58,117.83,32.59,116.47,32.59z M115.08,34.21
		c0.4-0.35,0.75-0.51,1.11-0.51c0.78,0,1.21,0.54,1.21,1.51s-0.54,1.61-1.31,1.61c-0.2,0-0.58-0.05-1-0.37v-2.24H115.08z"/>
	<path class="st0" d="M127.99,32.7h-1.14v-1.68c0,0-0.01-0.05-0.03-0.06s-0.05-0.02-0.07,0l-1.04,0.45c0,0-0.04,0.04-0.04,0.07v1.23
		h-0.72c0,0-0.07,0.03-0.07,0.07v0.9c0,0,0.03,0.07,0.07,0.07h0.69v2.19c0,1.39,0.47,1.99,1.57,1.99c0.19,0,0.4-0.02,0.62-0.07
		c0.03,0,0.06-0.04,0.06-0.07v-1c0,0-0.01-0.04-0.03-0.06s-0.04-0.02-0.06-0.01c-0.13,0.04-0.24,0.05-0.32,0.05
		c-0.44,0-0.62-0.24-0.62-0.82v-2.19H128c0,0,0.04,0,0.05-0.02c0.01-0.01,0.02-0.03,0.02-0.05v-0.9c0,0-0.03-0.07-0.07-0.07
		L127.99,32.7z"/>
	<path class="st0" d="M81.32,32.78h-1.07c0,0-0.07,0.03-0.07,0.07v5c0,0,0,0.04,0.02,0.05c0.01,0.01,0.03,0.02,0.05,0.02h1.07
		c0,0,0.07-0.03,0.07-0.07v-5c0,0,0-0.04-0.02-0.05C81.36,32.79,81.34,32.78,81.32,32.78z"/>
	<path class="st0" d="M80.79,30.82c-0.45,0-0.82,0.37-0.82,0.83c0,0.46,0.37,0.83,0.82,0.83s0.82-0.37,0.82-0.83
		S81.24,30.82,80.79,30.82z"/>
	<path class="st0" d="M130.25,32.78h-1.07c0,0-0.07,0.03-0.07,0.07v5c0,0,0,0.04,0.02,0.05c0.01,0.01,0.03,0.02,0.05,0.02h1.07
		c0,0,0.07-0.03,0.07-0.07v-5c0,0,0-0.04-0.02-0.05C130.29,32.79,130.27,32.78,130.25,32.78z"/>
	<path class="st0" d="M129.72,30.82c-0.45,0-0.82,0.37-0.82,0.83c0,0.46,0.37,0.83,0.82,0.83s0.82-0.37,0.82-0.83
		S130.17,30.82,129.72,30.82z"/>
	<path class="st0" d="M136.03,35.89h-1.26c0,0-0.06,0.02-0.07,0.05c-0.17,0.57-0.58,0.89-1.11,0.89c-0.72,0-1.19-0.61-1.19-1.54
		s0.47-1.56,1.19-1.56c0.52,0,0.92,0.31,1.1,0.86c0,0.03,0.04,0.05,0.07,0.05h1.27c0,0,0.04-0.01,0.06-0.03
		c0.01-0.02,0.02-0.04,0.01-0.06c-0.33-1.32-1.5-1.91-2.5-1.91c-1.29,0-2.6,0.91-2.6,2.65s1.31,2.63,2.6,2.63
		c1.02,0,2.2-0.6,2.52-1.94c0-0.02,0-0.04-0.01-0.06s-0.03-0.03-0.06-0.03H136.03z"/>
	<path class="st0" d="M105.72,35.17c1.01-0.36,1.46-0.96,1.46-1.94c0-1.44-0.94-2.18-2.78-2.18h-2.31c0,0-0.07,0.03-0.07,0.07v6.72
		c0,0,0.03,0.07,0.07,0.07h1.14c0,0,0.07-0.03,0.07-0.07v-2.47h0.96l1.64,2.51c0,0,0.04,0.03,0.06,0.03h1.46
		c0,0,0.05-0.02,0.06-0.04s0.01-0.05,0-0.07L105.72,35.17L105.72,35.17z M105.75,33.23c0,0.71-0.42,0.98-1.5,0.98h-0.96v-1.99h0.96
		C105.31,32.22,105.75,32.51,105.75,33.23z"/>
	<path class="st0" d="M95.85,32.78c-0.67,0-1.18,0.34-1.53,0.64c-0.02-0.14-0.05-0.37-0.07-0.54c0-0.04-0.04-0.06-0.07-0.06h-1.13
		c0,0-0.04,0-0.05,0.02c-0.01,0.01-0.02,0.03-0.02,0.05v4.96c0,0,0.03,0.07,0.07,0.07h1.22c0,0,0.04,0,0.05-0.02
		c0.01-0.01,0.02-0.03,0.02-0.05v-3.21c0.42-0.42,0.72-0.64,1.14-0.64c0.45,0,0.75,0.19,0.75,1.13v2.71c0,0,0.03,0.07,0.07,0.07
		h1.22c0,0,0.04,0,0.05-0.02c0.01-0.01,0.02-0.03,0.02-0.05v-2.85c0-1.48-0.59-2.23-1.75-2.23L95.85,32.78z"/>
</g>
<path class="st0" d="M42.51,13.81l8.19-0.14c0.15,0,0.26-0.13,0.26-0.27c0-0.08-0.04-0.15-0.1-0.2L37.91,2.45
	c-0.11-0.1-0.28-0.08-0.38,0.03c-0.06,0.07-0.08,0.16-0.05,0.25l2.56,9.3c0.09-0.01,0.17-0.01,0.26,0c1.07,0.01,2,0.76,2.22,1.81"/>
<path class="st0" d="M13.47,13.42c0.61,0.02,1.18,0.29,1.58,0.75l19.91-12c0.14-0.06,0.2-0.21,0.15-0.35
	c-0.04-0.11-0.15-0.18-0.27-0.17L12.43,3.77c-0.15,0.02-0.25,0.15-0.24,0.29c0,0,0,0,0,0L13.47,13.42z"/>
<path class="st0" d="M32.28,22.68l6.21-7.03c-0.31-0.39-0.47-0.87-0.47-1.37c0-0.83,0.46-1.59,1.19-1.98L36.55,2.6
	c-0.05-0.14-0.2-0.22-0.35-0.18c-0.02,0.01-0.03,0.01-0.05,0.02L15.5,14.94c0.09,0.25,0.14,0.51,0.14,0.77
	c0,0.21-0.04,0.42-0.1,0.62l13.72,7.03c0.42-0.63,1.12-1.02,1.88-1.02c0.4,0,0.79,0.11,1.14,0.32"/>
<path class="st0" d="M28.87,24.67c-0.02-0.16-0.02-0.31,0-0.47L15.1,17.14c-0.11,0.14-0.24,0.27-0.39,0.39l14.32,24.93
	c0.05,0.13,0.2,0.19,0.34,0.14c0.1-0.04,0.16-0.14,0.16-0.25l0.89-15.52C29.49,26.52,28.87,25.65,28.87,24.67"/>
<path class="st0" d="M43.84,30.81c0.14,0.06,0.3,0,0.36-0.14c0.02-0.05,0.03-0.12,0.02-0.17l-3.85-13.95h-0.08
	c-0.41,0-0.81-0.11-1.16-0.33l-6.2,7.03c0.32,0.41,0.49,0.91,0.48,1.42c-0.01,0.27-0.05,0.53-0.14,0.78L43.84,30.81z"/>
<path class="st0" d="M11.14,15.3c0.15-0.8,0.71-1.45,1.47-1.73l-1.25-8.86c-0.02-0.15-0.15-0.25-0.3-0.23
	C11,4.49,10.95,4.52,10.91,4.57L0.86,14.99c-0.11,0.11-0.11,0.28,0,0.39c0.06,0.06,0.13,0.09,0.21,0.08L11.14,15.3z"/>
<path class="st0" d="M32.79,26.17c-0.39,0.43-0.92,0.69-1.49,0.74l-0.91,15.93c-0.01,0.15,0.1,0.27,0.25,0.28
	c0.06,0,0.13-0.02,0.18-0.06l13.54-10.55c0.12-0.08,0.16-0.24,0.08-0.37c-0.02-0.03-0.05-0.06-0.08-0.08L32.79,26.17z"/>
<path class="st0" d="M42.52,14.68c-0.13,0.74-0.62,1.37-1.3,1.68l3.85,14.09c0.04,0.14,0.19,0.22,0.33,0.18
	c0.09-0.03,0.16-0.09,0.18-0.18l5.74-15.57c0.05-0.14-0.02-0.29-0.16-0.34c-0.03-0.01-0.06-0.02-0.1-0.02L42.52,14.68z"/>
<path class="st0" d="M11.84,17.38c-0.35-0.32-0.59-0.74-0.69-1.2L0.62,16.33c-0.15,0.01-0.27,0.14-0.26,0.29
	c0,0.02,0.01,0.04,0.01,0.06l4,12.07c0.06,0.13,0.22,0.19,0.35,0.13c0.06-0.03,0.1-0.07,0.13-0.13L11.84,17.38z"/>
<path class="st0" d="M13.99,17.9c-0.2,0.06-0.41,0.09-0.61,0.09c-0.27,0-0.54-0.06-0.8-0.15L5.41,29.61
	c-0.08,0.13-0.03,0.3,0.1,0.38c0.03,0.02,0.06,0.03,0.09,0.03l16.18,2.3c0.15,0.02,0.29-0.09,0.3-0.25c0.01-0.05,0-0.11-0.03-0.15
	L13.99,17.9z"/>
</svg>
